<?xml version="1.0" standalone="no"?>
<!DOCTYPE svg PUBLIC "-//W3C//DTD SVG 20010904//EN"
 "http://www.w3.org/TR/2001/REC-SVG-20010904/DTD/svg10.dtd">
<svg version="1.0" xmlns="http://www.w3.org/2000/svg"
 width="300.000000pt" height="300.000000pt" viewBox="0 0 300.000000 300.000000"
 preserveAspectRatio="xMidYMid meet">
<metadata>
Created by potrace 1.10, written by Peter Selinger 2001-2011
</metadata>
<g transform="translate(0.000000,300.000000) scale(0.100000,-0.100000)"
fill="#000000" stroke="none">
<path d="M1132 2702 c-7 -9 -10 -11 -7 -5 12 26 -21 1 -41 -31 -25 -39 -30
-132 -8 -154 8 -7 12 -17 9 -22 -7 -11 75 -77 95 -78 8 0 26 -3 40 -7 l25 -7
-25 24 c-53 50 -80 90 -80 119 0 40 15 66 37 64 31 -2 43 -15 43 -48 1 -30 1
-31 15 -13 11 15 12 23 3 33 -6 7 -8 16 -5 19 6 7 -24 44 -36 44 -4 0 -5 -5
-1 -12 5 -7 1 -9 -13 -6 -32 8 -67 -51 -58 -99 4 -21 14 -47 23 -57 16 -18 16
-18 -5 -7 -31 16 -53 61 -58 120 -3 35 1 53 11 62 8 6 14 17 14 24 0 14 31 25
75 25 23 0 27 -3 15 -10 -13 -8 -13 -10 1 -10 9 0 24 -9 34 -20 24 -27 38 -25
30 3 -11 37 -41 59 -82 63 -28 2 -42 -2 -51 -14z"/>
<path d="M1467 2690 c9 -16 21 -30 26 -30 4 0 6 -4 2 -9 -3 -5 1 -15 8 -23 23
-22 68 -109 62 -118 -3 -5 1 -12 8 -17 7 -4 21 -19 30 -33 30 -43 18 -11 -29
82 l-45 90 45 -36 c54 -45 68 -65 90 -132 21 -66 33 -169 17 -160 -6 4 -11 17
-11 29 0 20 0 20 -16 1 -8 -10 -13 -14 -10 -8 3 6 -9 28 -27 49 -17 21 -31 41
-30 44 3 10 -70 81 -83 81 -7 0 -14 4 -16 8 -5 14 -99 74 -105 68 -9 -8 129
-136 139 -129 5 2 7 -1 6 -9 -2 -7 4 -12 12 -10 8 2 12 0 7 -4 -9 -9 22 -44
40 -44 7 0 12 -6 10 -12 -1 -7 4 -12 11 -11 6 2 12 -3 12 -10 1 -16 46 -67 60
-67 6 0 8 -4 5 -10 -3 -5 -1 -10 5 -10 6 0 16 -13 21 -30 6 -16 17 -30 25 -30
18 0 18 10 0 35 -16 25 -24 57 -36 148 -5 40 -17 90 -26 112 -10 22 -17 43
-16 47 1 4 -9 16 -23 26 -13 11 -21 22 -18 26 3 3 0 6 -8 6 -9 0 -25 13 -37
30 -13 16 -26 29 -30 27 -4 -1 -9 3 -12 8 -7 16 -57 55 -70 55 -7 0 -5 -11 7
-30z"/>
<path d="M950 2696 c0 -8 -13 -28 -30 -46 l-30 -32 21 -30 c23 -32 23 -66 0
-248 -4 -36 -4 -69 0 -74 5 -6 9 -16 9 -24 0 -17 31 -84 36 -79 2 2 -3 27 -12
57 -11 36 -14 74 -10 119 17 218 18 233 7 244 -18 18 -13 55 9 62 14 4 20 15
20 36 0 16 -4 29 -10 29 -5 0 -10 -6 -10 -14z"/>
<path d="M300 2567 c-6 -46 -15 -90 -20 -97 -11 -17 27 -90 47 -90 18 0 16 7
-7 30 -21 21 -26 56 -10 80 8 12 10 10 11 -10 1 -14 2 -34 1 -45 0 -12 2 -14
5 -6 4 9 24 -7 64 -50 33 -35 59 -67 59 -71 0 -16 -20 -7 -35 16 -24 36 -65
60 -78 47 -8 -8 -6 -11 6 -11 9 0 17 -5 17 -12 0 -6 3 -8 7 -5 3 4 14 -7 24
-23 11 -17 23 -30 28 -30 5 0 12 -14 16 -31 8 -37 31 -33 27 5 -2 18 1 25 7
21 7 -4 11 5 10 22 0 25 -1 26 -9 8 -8 -18 -9 -18 -9 6 -1 18 -20 44 -66 88
l-65 63 -4 85 c-2 46 -6 86 -9 89 -3 3 -10 -33 -17 -79z"/>
<path d="M482 2615 c1 -22 0 -44 -2 -50 -1 -5 -2 -28 -1 -50 2 -53 21 -26 21
30 0 22 4 35 8 28 24 -38 83 -99 129 -134 48 -36 53 -43 53 -78 0 -60 18 -97
60 -125 22 -14 44 -26 49 -26 5 0 17 -7 26 -16 12 -13 21 -14 38 -6 20 9 19
10 -15 17 -23 4 -35 11 -31 18 3 6 1 7 -5 3 -7 -4 -12 -2 -12 4 0 6 -4 9 -8 6
-5 -3 -19 4 -30 15 -12 11 -22 16 -22 12 0 -4 -5 -2 -11 4 -6 6 -12 39 -14 74
-4 60 -7 66 -42 96 -80 69 -163 156 -163 171 0 4 -6 17 -14 28 -14 18 -15 16
-14 -21z"/>
<path d="M950 2619 c0 -67 39 -151 102 -219 26 -29 85 -56 140 -66 45 -7 71
-35 92 -97 21 -62 76 -171 83 -164 3 3 -5 27 -18 53 -12 26 -22 53 -22 61 0 7
-4 13 -9 13 -4 0 -8 9 -8 19 0 11 -4 22 -9 25 -5 3 -12 22 -16 42 -3 20 -9 33
-12 30 -4 -3 -11 4 -17 17 -10 18 -23 23 -79 29 -61 6 -70 10 -102 45 -20 21
-43 45 -51 54 -21 23 -54 113 -54 149 0 17 -4 30 -10 30 -5 0 -10 -9 -10 -21z
m283 -276 c-7 -2 -19 -2 -25 0 -7 3 -2 5 12 5 14 0 19 -2 13 -5z"/>
<path d="M371 2544 c0 -11 3 -14 6 -6 3 7 2 16 -1 19 -3 4 -6 -2 -5 -13z"/>
<path d="M1280 2483 c0 -54 3 -73 10 -63 8 12 10 11 10 -7 0 -13 0 -25 0 -28
-1 -3 6 -13 15 -21 8 -9 13 -19 10 -24 -3 -4 2 -11 11 -14 8 -3 12 -10 9 -16
-3 -5 -2 -10 3 -10 5 0 12 -8 16 -17 8 -25 28 -55 49 -74 9 -9 17 -21 17 -28
0 -6 5 -11 10 -11 6 0 10 -9 10 -21 0 -11 -4 -17 -10 -14 -5 3 -10 -1 -10 -9
0 -25 19 -19 26 8 6 24 -21 82 -72 151 -26 36 -75 135 -67 135 3 0 1 6 -4 13
-13 17 -16 67 -5 67 13 0 243 -214 368 -341 139 -143 142 -150 119 -281 -6
-32 -2 -41 31 -77 20 -23 49 -49 65 -58 15 -9 26 -20 24 -23 -2 -4 2 -7 10 -7
21 0 19 6 -12 30 -16 12 -47 39 -70 60 l-41 38 14 52 c19 70 17 96 -6 135 -11
17 -17 32 -13 32 4 0 -2 7 -13 15 -10 8 -15 15 -11 15 4 0 2 6 -5 14 -7 8 -16
12 -20 9 -5 -2 -8 3 -8 11 0 9 -5 15 -12 14 -7 -2 -12 4 -13 12 0 8 -10 19
-22 26 -13 6 -21 13 -19 15 2 2 -11 15 -30 29 -18 14 -36 33 -40 43 -3 9 -10
15 -15 12 -5 -4 -9 -1 -9 5 0 17 -47 60 -67 60 -15 0 -16 2 -3 10 8 5 11 10 5
10 -5 0 -27 16 -47 36 -21 19 -38 33 -38 29 0 -3 -14 10 -31 29 -16 19 -39 38
-50 41 -11 4 -18 9 -15 13 2 4 -10 17 -25 30 l-29 24 0 -79z"/>
<path d="M1785 2445 c-4 -41 -11 -75 -16 -75 -5 0 -8 -19 -8 -42 1 -40 2 -41
9 -13 l8 30 2 -37 c2 -21 3 -44 4 -50 1 -7 3 -15 6 -18 6 -6 76 -109 111 -164
18 -27 25 -50 22 -66 -3 -18 -2 -21 5 -12 15 21 24 -77 16 -172 -4 -54 -3 -86
4 -90 7 -4 11 39 11 127 2 132 2 133 -32 198 -18 36 -43 76 -54 88 -21 23 -58
92 -67 126 -12 45 -15 115 -6 115 6 0 10 -7 10 -16 0 -36 45 -171 66 -199 12
-16 45 -55 73 -85 27 -30 60 -72 73 -92 13 -21 26 -38 31 -38 16 0 5 24 -28
64 -19 24 -31 46 -27 50 4 4 2 6 -3 4 -14 -4 -86 77 -77 87 4 5 1 5 -6 1 -8
-5 -19 6 -31 36 -28 63 -71 232 -71 278 0 68 -17 44 -25 -35z"/>
<path d="M1852 2500 c0 -14 2 -19 5 -12 2 6 2 18 0 25 -3 6 -5 1 -5 -13z"/>
<path d="M500 2481 c0 -19 62 -81 81 -81 17 0 27 -43 17 -75 -17 -59 -29 -120
-28 -150 1 -37 27 -94 46 -102 8 -3 14 -12 14 -21 0 -8 3 -12 7 -9 3 4 12 -1
20 -11 9 -12 13 -13 11 -3 -2 8 -15 27 -29 43 -49 53 -54 78 -35 186 9 54 16
103 16 110 0 7 -27 39 -60 72 -44 43 -60 54 -60 41z"/>
<path d="M1731 2474 c0 -11 3 -14 6 -6 3 7 2 16 -1 19 -3 4 -6 -2 -5 -13z"/>
<path d="M1872 2415 c0 -16 2 -22 5 -12 2 9 2 23 0 30 -3 6 -5 -1 -5 -18z"/>
<path d="M1911 2414 c0 -11 3 -14 6 -6 3 7 2 16 -1 19 -3 4 -6 -2 -5 -13z"/>
<path d="M1598 2413 c7 -3 16 -2 19 1 4 3 -2 6 -13 5 -11 0 -14 -3 -6 -6z"/>
<path d="M276 2308 c4 -7 16 -25 26 -40 10 -14 18 -34 18 -45 0 -15 2 -16 10
-3 8 13 10 12 11 -5 1 -11 2 -26 2 -32 -1 -7 2 -13 6 -13 4 0 13 -37 21 -82 7
-46 21 -99 30 -118 19 -37 80 -101 80 -83 0 5 -9 18 -21 29 -34 30 -49 69 -70
176 -11 55 -22 105 -26 111 -4 7 31 -21 77 -61 46 -40 89 -71 96 -68 7 3 11 0
9 -7 -5 -12 77 -67 98 -67 7 1 0 8 -15 16 -16 8 -28 19 -28 24 0 6 -7 10 -15
10 -8 0 -15 4 -15 9 0 5 -24 26 -52 47 -29 21 -60 46 -69 56 -9 10 -22 18 -29
18 -7 0 -11 2 -8 5 6 6 -122 135 -135 135 -4 0 -5 -6 -1 -12z"/>
<path d="M360 2292 c6 -13 14 -21 18 -18 3 4 -2 14 -12 24 -18 16 -18 16 -6
-6z"/>
<path d="M1014 2254 c10 -67 45 -138 100 -204 26 -30 49 -65 53 -78 3 -13 -1
-53 -10 -90 -11 -49 -15 -58 -16 -35 -2 53 -30 111 -65 133 -18 10 -75 33
-127 50 -100 33 -168 71 -236 134 l-43 39 0 -36 c0 -51 14 -81 60 -131 40 -43
40 -43 34 -105 -7 -58 -8 -61 -35 -61 -20 0 -48 19 -110 76 -71 65 -168 131
-158 107 24 -53 89 -150 119 -175 l38 -33 -99 3 c-109 4 -181 -11 -258 -54
-24 -13 -46 -23 -48 -20 -8 8 90 85 145 112 31 16 59 30 61 32 2 1 1 5 -2 8
-11 11 -112 -44 -161 -87 -76 -67 -100 -138 -42 -123 41 10 123 -25 209 -89
45 -34 177 -154 292 -267 260 -255 364 -328 560 -395 94 -32 185 -74 185 -86
0 -4 -19 -21 -42 -38 -57 -39 -148 -135 -148 -155 0 -8 -6 -19 -13 -23 -6 -4
-24 -24 -38 -43 -15 -19 -52 -48 -84 -64 -73 -37 -95 -59 -95 -95 0 -42 41
-85 113 -121 105 -51 192 -63 457 -63 231 0 237 0 353 31 132 35 200 69 222
112 34 67 6 119 -81 147 -59 18 -107 66 -133 131 -13 31 -85 102 -104 102 -12
0 -97 71 -97 81 0 5 6 9 14 9 8 0 21 9 29 20 7 11 33 27 57 35 23 8 72 31 108
50 37 19 78 35 92 35 32 0 68 23 155 99 39 34 134 105 213 158 171 115 244
183 301 280 57 97 81 176 81 271 0 179 -75 305 -217 368 -99 44 -178 41 -340
-11 -16 -5 -29 0 -48 19 -25 25 -53 36 -40 17 3 -6 -8 -65 -26 -133 -34 -137
-34 -185 3 -270 19 -46 115 -148 138 -148 6 0 -16 25 -49 56 -44 41 -65 69
-81 110 -27 73 -25 128 7 255 l27 107 26 -20 c27 -19 27 -19 87 1 138 46 239
37 343 -32 35 -23 66 -49 68 -57 3 -9 -6 -5 -23 10 -23 20 -21 16 10 -25 44
-59 56 -71 31 -32 -10 16 -15 31 -12 34 7 7 44 -55 57 -97 16 -50 24 -250 9
-230 -9 12 -10 10 -5 -8 4 -14 0 -43 -11 -70 -21 -57 -92 -172 -105 -172 -6 0
-8 -4 -4 -9 8 -14 -111 -111 -247 -202 -65 -44 -142 -101 -171 -127 -86 -77
-141 -119 -167 -127 -18 -6 -11 4 25 32 28 23 70 62 95 88 25 26 103 86 175
133 139 92 265 207 308 282 63 109 75 298 27 408 -44 100 -151 166 -270 165
-74 0 -109 -6 -102 -17 3 -5 -3 -6 -14 -2 -10 4 -15 4 -11 0 8 -8 -11 -34 -25
-34 -6 0 -5 8 2 18 7 9 -6 -2 -29 -25 -22 -23 -41 -48 -41 -55 0 -7 9 1 19 18
11 18 24 35 30 39 6 3 0 -10 -14 -31 -14 -20 -25 -44 -25 -53 0 -11 -3 -12 -8
-4 -4 6 -6 -26 -5 -70 2 -104 2 -99 11 -93 4 3 17 -12 28 -31 11 -22 42 -52
78 -75 76 -49 90 -69 88 -129 -1 -45 -36 -148 -47 -137 -3 2 4 35 14 73 23 81
18 96 -36 117 -39 16 -147 10 -112 -6 9 -4 27 -6 40 -5 108 10 144 -47 58 -91
-28 -15 -206 -70 -226 -70 0 0 12 24 28 54 34 62 33 77 -12 169 -24 48 -113
177 -123 177 -2 0 0 -19 5 -42 24 -121 26 -109 -37 -177 -55 -60 -60 -63 -95
-57 -104 17 -229 93 -229 141 0 39 -38 148 -65 188 -28 40 -45 41 -45 3 0 -13
-19 -52 -41 -85 l-41 -62 -27 23 c-101 88 -121 112 -121 148 0 46 -27 148 -46
178 -9 13 -44 37 -80 52 -35 16 -84 42 -107 58 -74 50 -70 50 -63 -4z m168
-70 c23 -9 51 -25 60 -36 20 -23 48 -114 48 -158 0 -17 6 -43 14 -58 16 -31
100 -113 136 -132 21 -11 26 -10 51 21 16 19 39 56 52 83 l23 49 29 -64 c16
-35 31 -88 33 -117 4 -46 9 -56 41 -81 51 -40 107 -67 181 -86 l63 -16 58 57
c75 74 85 97 65 155 l-15 44 29 -33 c44 -53 95 -160 95 -203 0 -26 -10 -51
-32 -81 -25 -35 -39 -45 -74 -51 -71 -14 -318 -12 -399 2 -103 18 -307 87
-475 161 -226 99 -417 176 -473 190 -63 17 -136 80 -177 153 -26 46 -26 48 -5
37 12 -6 55 -43 95 -81 73 -69 136 -102 156 -82 5 5 12 40 16 77 6 67 6 67
-29 104 -39 40 -52 62 -62 105 -6 27 -5 27 49 -18 67 -54 127 -86 217 -113
130 -41 148 -57 173 -160 10 -40 20 -71 22 -68 3 2 13 41 23 87 22 98 20 106
-56 205 -49 63 -84 139 -84 180 0 9 20 1 54 -21 30 -19 74 -42 98 -51z m1364
-66 c117 -45 176 -144 175 -293 0 -153 -35 -236 -143 -342 -72 -71 -186 -157
-285 -216 -6 -4 6 27 28 68 21 42 39 84 39 93 0 10 9 23 21 30 32 20 59 90 59
155 0 53 -3 61 -32 89 -18 16 -53 44 -78 62 -61 44 -93 104 -93 175 0 155 148
241 309 179z m-1898 -294 c74 -15 253 -85 544 -213 172 -76 323 -127 434 -146
114 -20 326 -19 445 1 101 17 274 69 284 84 3 6 10 10 14 10 15 0 -40 -174
-77 -243 -44 -83 -120 -169 -205 -233 -72 -55 -186 -110 -216 -105 -7 1 -10
-2 -6 -9 4 -7 -1 -9 -17 -5 -12 3 -43 1 -68 -5 l-45 -9 55 5 c72 6 48 -10 -38
-27 -90 -17 -268 -7 -370 21 -48 13 -79 26 -76 32 4 6 -2 8 -15 3 -12 -4 -21
-2 -21 4 0 6 -9 11 -19 11 -33 0 -166 66 -249 122 -43 30 -168 142 -287 258
-281 275 -389 353 -486 353 -22 0 -39 1 -39 3 0 2 28 18 63 37 54 30 96 45
172 61 47 9 151 5 223 -10z m977 -919 c28 0 79 3 115 7 50 5 60 4 43 -4 -13
-6 -23 -19 -23 -28 0 -18 58 -70 122 -109 70 -42 110 -128 70 -150 -29 -16
-34 -14 -21 7 27 43 -27 122 -81 122 -19 0 -29 4 -25 10 4 6 -8 25 -27 43 -18
18 -41 44 -51 60 l-17 27 -118 -2 -117 -2 116 -3 117 -4 12 -30 c7 -16 26 -37
42 -47 42 -25 32 -45 -30 -57 -29 -6 -51 -13 -48 -15 2 -3 -32 -5 -77 -5 -45
0 -85 4 -88 8 -3 4 -26 9 -51 10 -25 1 -44 5 -41 10 2 4 -7 7 -21 7 -30 0 -56
9 -56 21 0 4 21 22 46 39 60 42 71 71 35 87 -22 10 -14 11 49 5 41 -4 98 -7
125 -7z m-175 -180 c61 -22 265 -22 335 0 76 23 91 20 120 -22 14 -21 25 -45
25 -54 0 -14 -42 -51 -60 -54 -3 -1 -32 -5 -65 -9 -40 -6 -54 -11 -41 -15 10
-4 -17 -7 -60 -7 -44 1 -110 -2 -149 -7 -50 -5 -66 -4 -55 3 12 8 7 10 -20 9
-19 -1 -43 2 -52 6 -9 4 -22 3 -29 -1 -8 -5 -9 -3 -4 6 6 10 1 12 -18 8 -17
-3 -24 -1 -20 5 4 6 0 8 -10 4 -10 -3 -17 -3 -17 2 0 5 -11 12 -25 15 -18 5
-25 13 -25 32 0 34 24 78 56 103 23 18 28 19 48 6 12 -8 42 -21 66 -30z m-158
-124 c68 -55 281 -85 438 -62 90 14 214 54 243 79 17 15 20 14 42 -14 16 -20
46 -39 84 -53 64 -23 81 -42 81 -88 -1 -35 -15 -54 -60 -82 -44 -26 -59 -27
-36 -2 22 24 17 62 -9 76 -14 7 -19 18 -17 37 3 23 -3 32 -32 49 -20 12 -36
25 -36 29 0 4 -7 11 -16 14 -31 12 10 -37 45 -54 76 -37 7 -86 -175 -125 -230
-50 -520 -27 -638 50 -14 10 -26 14 -26 10 0 -4 -7 -2 -15 5 -9 7 -18 10 -21
7 -9 -9 82 -58 157 -83 109 -37 238 -49 381 -35 159 15 263 37 317 67 52 29
91 24 91 -12 0 -12 -9 -29 -20 -37 -11 -8 -17 -17 -12 -22 4 -5 2 -5 -5 -1 -7
3 -38 -2 -70 -13 -71 -24 -262 -51 -358 -51 -38 0 -129 7 -200 16 -72 10 -142
17 -157 18 -14 1 -24 5 -20 10 3 5 -5 7 -16 4 -12 -4 -20 -2 -16 3 3 5 -1 9
-9 9 -8 0 -42 14 -76 31 -108 54 -103 102 20 167 47 24 71 45 85 70 11 21 20
30 22 21 2 -8 17 -25 34 -38z m535 -27 c-3 -3 -12 -4 -19 -1 -8 3 -5 6 6 6 11
1 17 -2 13 -5z m-114 -21 c-13 -2 -35 -2 -50 0 -16 2 -5 4 22 4 28 0 40 -2 28
-4z"/>
<path d="M330 1731 c0 -5 7 -12 16 -15 14 -5 15 -4 4 9 -14 17 -20 19 -20 6z"/>
<path d="M384 1697 c61 -39 193 -156 350 -310 161 -159 314 -294 291 -257 -6
8 -10 20 -10 25 -1 6 -7 9 -14 7 -18 -4 -53 27 -276 247 -187 184 -323 302
-349 300 -6 0 -3 -6 8 -12z"/>
<path d="M1015 1443 c-78 -6 -79 -6 -35 -71 44 -68 65 -78 166 -85 54 -4 80
-12 108 -31 21 -14 75 -39 122 -57 46 -17 83 -33 82 -34 -2 -2 -43 -20 -93
-40 -49 -21 -91 -38 -93 -40 -9 -8 15 -38 44 -56 l34 -21 54 30 c29 17 80 42
114 56 l61 26 150 -59 c147 -58 171 -61 171 -25 0 7 -58 34 -130 60 l-130 47
29 18 c28 17 31 17 147 -22 105 -35 120 -37 133 -24 21 21 10 28 -91 60 -49
16 -88 31 -88 35 0 4 22 17 49 30 l50 23 50 -37 c49 -36 51 -37 80 -22 16 9
39 28 50 42 27 34 23 39 -93 116 -100 68 -147 81 -190 53 -35 -23 -33 -48 6
-79 l33 -25 -57 -25 c-32 -14 -68 -28 -80 -31 -14 -3 -88 16 -188 50 -90 30
-173 55 -183 55 -11 0 -36 13 -56 29 -76 60 -91 63 -226 54z m170 -32 c28 -16
57 -36 64 -45 12 -14 9 -16 -22 -16 -27 0 -39 6 -47 21 -16 28 -69 49 -132 51
l-53 1 45 7 c79 12 94 10 145 -19z m-165 -26 c40 -41 91 -57 169 -55 77 3 91
2 91 -10 0 -14 -27 -12 -33 3 -4 9 -6 9 -6 -1 -1 -7 9 -17 22 -22 24 -11 -160
-2 -202 10 -28 7 -110 110 -88 110 7 0 28 -16 47 -35z m925 -30 c80 -53 101
-75 73 -75 -7 0 -26 -13 -43 -30 l-31 -30 -59 50 c-33 27 -64 50 -69 50 -12 0
-66 51 -66 62 0 15 56 38 83 33 15 -2 66 -30 112 -60z m-796 26 c42 -29 36
-38 -24 -31 -42 5 -62 13 -82 33 l-27 27 54 -6 c30 -3 66 -14 79 -23z m308
-83 c147 -48 190 -68 148 -68 -8 0 -76 18 -150 39 -74 22 -143 37 -155 34 -16
-4 -19 -2 -14 12 4 10 1 21 -7 26 -34 21 24 7 178 -43z m391 -10 c9 -9 -15
-25 -101 -71 -61 -33 -153 -77 -203 -97 -50 -21 -111 -49 -136 -64 -55 -32
-65 -32 -103 -2 l-29 23 24 8 c14 4 99 40 190 80 91 40 188 80 215 89 28 9 61
23 75 31 31 18 52 19 68 3z m-525 -11 c3 -7 40 -29 84 -47 43 -18 82 -37 88
-42 29 -25 -108 15 -203 60 -57 27 -57 27 -27 33 47 10 53 10 58 -4z m139 -22
c60 -16 108 -33 108 -37 0 -4 -15 -10 -33 -13 -25 -5 -52 3 -120 34 -48 22
-87 43 -87 46 0 4 6 5 13 3 6 -2 60 -16 119 -33z m560 -16 c-38 -34 -69 -40
-53 -10 11 19 72 53 81 45 3 -3 -10 -19 -28 -35z m-181 -73 c131 -47 123 -62
-10 -18 -60 20 -107 40 -105 44 8 12 14 11 115 -26z m-36 -98 c89 -34 91 -35
82 -45 -4 -3 -70 18 -147 48 -76 29 -134 56 -128 60 6 4 34 -2 62 -13 28 -11
87 -33 131 -50z"/>
<path d="M1057 1123 c40 -36 103 -73 86 -51 -7 8 -37 29 -65 47 -51 30 -52 30
-21 4z"/>
<path d="M1390 960 c25 -8 97 -13 89 -6 -2 2 -29 6 -59 9 -36 4 -46 3 -30 -3z"/>
<path d="M1558 943 c34 -2 88 -2 120 0 31 2 3 3 -63 3 -66 0 -92 -1 -57 -3z"/>
<path d="M1409 793 c-13 -16 -12 -17 4 -4 16 13 21 21 13 21 -2 0 -10 -8 -17
-17z"/>
<path d="M1342 728 c-21 -24 -43 -70 -41 -91 0 -7 7 4 16 23 8 19 24 47 35 62
23 34 19 36 -10 6z"/>
<path d="M1238 585 c-19 -24 -102 -75 -124 -75 -16 0 -44 -39 -44 -60 0 -8 8
0 16 18 9 17 23 32 30 32 25 0 116 54 132 78 20 30 12 36 -10 7z"/>
<path d="M1912 2260 c0 -14 2 -19 5 -12 2 6 2 18 0 25 -3 6 -5 1 -5 -13z"/>
<path d="M860 2175 c0 -7 57 -35 72 -35 19 1 -34 40 -54 40 -10 0 -18 -2 -18
-5z"/>
<path d="M1410 2107 c0 -9 -8 -21 -17 -26 -16 -9 -16 -10 -2 -11 25 0 45 28
31 42 -9 9 -12 8 -12 -5z"/>
<path d="M1825 2090 c10 -11 20 -20 23 -20 3 0 -3 9 -13 20 -10 11 -20 20 -23
20 -3 0 3 -9 13 -20z"/>
<path d="M2685 2060 c10 -11 20 -20 23 -20 3 0 -3 9 -13 20 -10 11 -20 20 -23
20 -3 0 3 -9 13 -20z"/>
<path d="M2172 2040 c0 -14 2 -19 5 -12 2 6 2 18 0 25 -3 6 -5 1 -5 -13z"/>
<path d="M1862 2030 c7 -10 14 -18 15 -16 6 6 -9 36 -18 36 -5 0 -4 -9 3 -20z"/>
<path d="M2750 2015 c0 -5 5 -17 10 -25 5 -8 10 -10 10 -5 0 6 -5 17 -10 25
-5 8 -10 11 -10 5z"/>
<path d="M2160 1954 c0 -37 8 -75 21 -103 21 -48 88 -135 96 -127 3 3 -9 19
-25 37 -48 52 -80 126 -80 188 -1 29 -3 56 -6 59 -3 3 -6 -21 -6 -54z"/>
<path d="M2066 1962 c-11 -34 72 -236 121 -293 28 -33 50 -72 64 -114 7 -20 7
-20 8 1 1 11 -14 46 -33 77 -19 30 -31 59 -27 63 3 4 1 4 -5 1 -17 -10 -121
222 -107 237 4 3 2 6 -4 6 -6 0 -9 9 -6 20 7 25 -4 27 -11 2z"/>
<path d="M2203 1940 c0 -25 2 -35 4 -22 2 12 2 32 0 45 -2 12 -4 2 -4 -23z"/>
</g>
</svg>
